<svg width="20" height="23" viewBox="0 0 20 23" fill="none" xmlns="http://www.w3.org/2000/svg">
<path id="Vector" d="M19.947 18.1585V19.1829H0.0523071V18.1585L2.26283 16.1098V9.96341C2.26283 6.7878 4.50652 3.99121 7.78915 3.08975C7.78915 2.98731 7.78915 2.89512 7.78915 2.79268C7.78915 2.24931 8.02204 1.72819 8.4366 1.34397C8.85115 0.959749 9.41341 0.743896 9.99968 0.743896C10.5859 0.743896 11.1482 0.959749 11.5628 1.34397C11.9773 1.72819 12.2102 2.24931 12.2102 2.79268C12.2102 2.89512 12.2102 2.98731 12.2102 3.08975C15.4928 3.99121 17.7365 6.7878 17.7365 9.96341V16.1098L19.947 18.1585ZM12.2102 20.2073C12.2102 20.7507 11.9773 21.2718 11.5628 21.656C11.1482 22.0402 10.5859 22.2561 9.99968 22.2561C9.41341 22.2561 8.85115 22.0402 8.4366 21.656C8.02204 21.2718 7.78915 20.7507 7.78915 20.2073" fill="#0898A0"/>
</svg>
