<svg width="24" height="25" viewBox="0 0 24 25" fill="none" xmlns="http://www.w3.org/2000/svg">
<g id="icon 04">
<path id="&#244;&#128;&#137;&#137;" d="M5.58248 20.8369H18.4175C20.1295 20.8369 21 19.9669 21 18.3121V7.35228C21 5.70689 20.1295 4.83691 18.4175 4.83691H5.58248C3.88017 4.83691 3 5.68798 3 7.35228V18.3121C3 19.9764 3.88017 20.8369 5.58248 20.8369ZM5.53412 19.9197C4.48952 19.9197 3.92853 19.3806 3.92853 18.3405V10.3215C3.92853 9.28136 4.48952 8.74235 5.53412 8.74235H18.4562C19.4815 8.74235 20.0715 9.28136 20.0715 10.3215V18.3405C20.0715 19.3806 19.4815 19.9197 18.4562 19.9197H5.53412ZM10.1671 11.8913H10.6991C10.9699 11.8913 11.0279 11.8345 11.0279 11.5792V11.0497C11.0279 10.8038 10.9699 10.7471 10.6991 10.7471H10.1671C9.89629 10.7471 9.83826 10.8038 9.83826 11.0497V11.5792C9.83826 11.8345 9.89629 11.8913 10.1671 11.8913ZM13.3009 11.8913H13.8329C14.1037 11.8913 14.1617 11.8345 14.1617 11.5792V11.0497C14.1617 10.8038 14.1037 10.7471 13.8329 10.7471H13.3009C13.0301 10.7471 12.9721 10.8038 12.9721 11.0497V11.5792C12.9721 11.8345 13.0301 11.8913 13.3009 11.8913ZM16.425 11.8913H16.9667C17.2278 11.8913 17.2955 11.8345 17.2955 11.5792V11.0497C17.2955 10.8038 17.2278 10.7471 16.9667 10.7471H16.425C16.1639 10.7471 16.0962 10.8038 16.0962 11.0497V11.5792C16.0962 11.8345 16.1639 11.8913 16.425 11.8913ZM7.03332 14.9078H7.57496C7.83611 14.9078 7.90381 14.8511 7.90381 14.5958V14.0662C7.90381 13.8109 7.83611 13.7542 7.57496 13.7542H7.03332C6.77217 13.7542 6.70446 13.8109 6.70446 14.0662V14.5958C6.70446 14.8511 6.77217 14.9078 7.03332 14.9078ZM10.1671 14.9078H10.6991C10.9699 14.9078 11.0279 14.8511 11.0279 14.5958V14.0662C11.0279 13.8109 10.9699 13.7542 10.6991 13.7542H10.1671C9.89629 13.7542 9.83826 13.8109 9.83826 14.0662V14.5958C9.83826 14.8511 9.89629 14.9078 10.1671 14.9078ZM13.3009 14.9078H13.8329C14.1037 14.9078 14.1617 14.8511 14.1617 14.5958V14.0662C14.1617 13.8109 14.1037 13.7542 13.8329 13.7542H13.3009C13.0301 13.7542 12.9721 13.8109 12.9721 14.0662V14.5958C12.9721 14.8511 13.0301 14.9078 13.3009 14.9078ZM16.425 14.9078H16.9667C17.2278 14.9078 17.2955 14.8511 17.2955 14.5958V14.0662C17.2955 13.8109 17.2278 13.7542 16.9667 13.7542H16.425C16.1639 13.7542 16.0962 13.8109 16.0962 14.0662V14.5958C16.0962 14.8511 16.1639 14.9078 16.425 14.9078ZM7.03332 17.9149H7.57496C7.83611 17.9149 7.90381 17.8582 7.90381 17.6029V17.0828C7.90381 16.8275 7.83611 16.7707 7.57496 16.7707H7.03332C6.77217 16.7707 6.70446 16.8275 6.70446 17.0828V17.6029C6.70446 17.8582 6.77217 17.9149 7.03332 17.9149ZM10.1671 17.9149H10.6991C10.9699 17.9149 11.0279 17.8582 11.0279 17.6029V17.0828C11.0279 16.8275 10.9699 16.7707 10.6991 16.7707H10.1671C9.89629 16.7707 9.83826 16.8275 9.83826 17.0828V17.6029C9.83826 17.8582 9.89629 17.9149 10.1671 17.9149ZM13.3009 17.9149H13.8329C14.1037 17.9149 14.1617 17.8582 14.1617 17.6029V17.0828C14.1617 16.8275 14.1037 16.7707 13.8329 16.7707H13.3009C13.0301 16.7707 12.9721 16.8275 12.9721 17.0828V17.6029C12.9721 17.8582 13.0301 17.9149 13.3009 17.9149Z" fill="#0898A0"/>
</g>
</svg>
