<svg width="13" height="10" viewBox="0 0 13 10" fill="none" xmlns="http://www.w3.org/2000/svg">
<path id="&#244;&#128;&#139;&#176;" d="M10.2283 9.33045C10.3722 9.48141 10.6024 9.49115 10.751 9.33045C10.9045 9.16974 10.8949 8.9506 10.751 8.79964L2.73331 0.662183C2.58945 0.516089 2.34969 0.516089 2.20583 0.662183C2.06677 0.803408 2.06677 1.05177 2.20583 1.19299L10.2283 9.33045ZM10.6839 7.92307C12.0841 6.9832 13 5.6927 13 5.11319C13 4.12462 10.3386 0.973851 6.5024 0.973851C5.6872 0.973851 4.91996 1.11508 4.22464 1.34883L5.47141 2.61498C5.7879 2.47862 6.13316 2.40071 6.5024 2.40071C7.98414 2.40071 9.18296 3.59381 9.18296 5.11319C9.18296 5.4833 9.10144 5.83879 8.95758 6.15046L10.6839 7.92307ZM6.5024 9.25253C7.38952 9.25253 8.21431 9.08695 8.9384 8.81425L7.68204 7.53836C7.32719 7.72341 6.92438 7.82567 6.5024 7.82567C5.00627 7.82567 3.82184 6.59361 3.81704 5.11319C3.81704 4.67491 3.91774 4.26097 4.09517 3.89574L2.45518 2.22052C0.94467 3.17987 0 4.52881 0 5.11319C0 6.09689 2.70933 9.25253 6.5024 9.25253ZM8.0273 5.01092C8.0273 4.15871 7.35116 3.46719 6.5024 3.46719C6.44006 3.46719 6.37772 3.47206 6.32018 3.47693L8.01771 5.20085C8.0225 5.14241 8.0273 5.07423 8.0273 5.01092ZM4.9727 5.00118C4.9727 5.85827 5.66802 6.54978 6.50719 6.54978C6.57433 6.54978 6.63667 6.54491 6.7038 6.54004L4.98229 4.79178C4.9775 4.85996 4.9727 4.93301 4.9727 5.00118Z" fill="#0898A0"/>
</svg>
