<svg width="9" height="16" viewBox="0 0 9 16" fill="none" xmlns="http://www.w3.org/2000/svg">
<path id="Arrow" d="M1.63721 15.2134C1.85303 15.2134 2.03564 15.1304 2.17676 14.9893L8.75928 8.55615C8.91699 8.39844 9 8.20752 9 8C9 7.78418 8.91699 7.58496 8.75928 7.44385L2.18506 1.01904C2.03564 0.869629 1.85303 0.786621 1.63721 0.786621C1.20557 0.786621 0.881836 1.11865 0.881836 1.55029C0.881836 1.74951 0.964844 1.94873 1.09766 2.08984L7.14062 8L1.09766 13.9102C0.964844 14.0513 0.881836 14.2422 0.881836 14.4497C0.881836 14.8813 1.20557 15.2134 1.63721 15.2134Z" fill="#838F91"/>
</svg>
