<svg width="33" height="32" viewBox="0 0 33 32" fill="none" xmlns="http://www.w3.org/2000/svg">
<g id="nav icon">
<path id="Path" fill-rule="evenodd" clip-rule="evenodd" d="M19.5322 25.1274V22.085C19.5322 20.5097 18.0923 19.2327 16.517 19.2327H16.0824C14.5071 19.2327 13.0671 20.5097 13.0671 22.085V25.1274C13.0671 25.3274 13.1014 25.5194 13.1645 25.6979H11.7361C10.1608 25.6979 8.8838 24.4209 8.8838 22.8456V14.1198L7.54809 15.2886C7.31099 15.496 6.9506 15.472 6.74314 15.2349C6.53568 14.9978 6.5597 14.6374 6.7968 14.4299L15.924 6.44362C16.1391 6.25543 16.4602 6.25543 16.6753 6.44362L25.8026 14.4299C26.0397 14.6374 26.0637 14.9978 25.8562 15.2349C25.6488 15.472 25.2884 15.496 25.0513 15.2886L23.7156 14.1198V22.8456C23.7156 24.4209 22.4386 25.6979 20.8633 25.6979H19.4349C19.4979 25.5194 19.5322 25.3274 19.5322 25.1274Z" fill="#41BCC4"/>
</g>
</svg>
