<svg width="24" height="25" viewBox="0 0 24 25" fill="none" xmlns="http://www.w3.org/2000/svg">
<g id="information-outline">
<path id="Vector" d="M11 9.40918H13V7.40918H11V9.40918ZM12 20.4092C7.59 20.4092 4 16.8192 4 12.4092C4 7.99918 7.59 4.40918 12 4.40918C16.41 4.40918 20 7.99918 20 12.4092C20 16.8192 16.41 20.4092 12 20.4092ZM12 2.40918C10.6868 2.40918 9.38642 2.66784 8.17317 3.17038C6.95991 3.67293 5.85752 4.40953 4.92893 5.33811C3.05357 7.21348 2 9.75701 2 12.4092C2 15.0613 3.05357 17.6049 4.92893 19.4802C5.85752 20.4088 6.95991 21.1454 8.17317 21.648C9.38642 22.1505 10.6868 22.4092 12 22.4092C14.6522 22.4092 17.1957 21.3556 19.0711 19.4802C20.9464 17.6049 22 15.0613 22 12.4092C22 11.096 21.7413 9.7956 21.2388 8.58235C20.7362 7.36909 19.9997 6.2667 19.0711 5.33811C18.1425 4.40953 17.0401 3.67293 15.8268 3.17038C14.6136 2.66784 13.3132 2.40918 12 2.40918ZM11 17.4092H13V11.4092H11V17.4092Z" fill="#0898A0"/>
</g>
</svg>
