<svg width="21" height="22" viewBox="0 0 21 22" fill="none" xmlns="http://www.w3.org/2000/svg">
<path id="&#244;&#128;&#144;&#159;" d="M10.9 12.8909C11.3532 12.8909 11.7965 12.7061 12.3975 12.3562L19.5009 8.30225C20.3975 7.78701 20.8901 7.26204 20.8901 6.44543C20.8901 5.62881 20.3975 5.09412 19.5009 4.5886L12.3975 0.534688C11.7965 0.184711 11.3532 0 10.9 0C10.4369 0 10.0034 0.184711 9.40243 0.534688L2.28913 4.5886C1.39257 5.09412 0.899963 5.62881 0.899963 6.44543C0.899963 7.26204 1.39257 7.78701 2.28913 8.30225L9.40243 12.3562C10.0034 12.7061 10.4369 12.8909 10.9 12.8909ZM10.9 17.5281C11.3433 17.5281 11.7571 17.3336 12.3384 16.9934L19.6783 12.7742C20.4468 12.327 20.9 11.8118 20.9 11.0632C20.9 10.4313 20.5551 9.94521 20.0527 9.58551L11.9542 14.2519C11.5207 14.4949 11.2251 14.6407 10.9 14.6407C10.5748 14.6407 10.2694 14.4949 9.84578 14.2519L1.74725 9.58551C1.23494 9.94521 0.899963 10.4313 0.899963 11.0632C0.899963 11.8118 1.35317 12.3367 2.11179 12.7742L9.45169 16.9934C10.033 17.3336 10.4468 17.5281 10.9 17.5281ZM10.9 22C11.3433 22 11.7571 21.7958 12.3384 21.4653L19.6783 17.2364C20.4369 16.7989 20.9 16.2837 20.9 15.5351C20.9 14.8935 20.5551 14.4074 20.0527 14.0477L11.9542 18.7141C11.5207 18.9669 11.2251 19.1127 10.9 19.1127C10.5748 19.1127 10.2694 18.9669 9.84578 18.7141L1.74725 14.0477C1.23494 14.4074 0.899963 14.8935 0.899963 15.5351C0.899963 16.2837 1.35317 16.7989 2.11179 17.2364L9.45169 21.4653C10.033 21.7958 10.4468 22 10.9 22Z" fill="#94A1AD"/>
</svg>
