<svg width="24" height="24" viewBox="0 0 24 24" fill="none" xmlns="http://www.w3.org/2000/svg">
<g id="icon 03">
<rect width="24" height="24" rx="12" fill="#71879C" fill-opacity="0.1"/>
<path id="&#244;&#128;&#133;&#141;" d="M12.0735 15.4719C12.5638 15.4719 12.7955 15.1331 12.7955 14.6786V14.2596C12.8134 13.1008 13.2145 12.5928 14.5961 11.639C16.0936 10.605 16.9493 9.50864 16.9493 7.93092C16.9493 5.48858 14.9616 4 12.4479 4C10.5404 4 8.90028 4.97159 8.22284 6.6117C8.0624 6.99499 8 7.36045 8 7.6546C8 8.06462 8.23175 8.34095 8.66852 8.34095C9.03398 8.34095 9.27465 8.12702 9.38162 7.77047C9.77382 6.09471 10.9237 5.33705 12.4033 5.33705C14.1237 5.33705 15.4786 6.3532 15.4786 7.93092C15.4786 9.13426 14.7565 9.85627 13.5799 10.6942C12.1983 11.6747 11.3337 12.6106 11.3337 14.0813V14.6964C11.3337 15.151 11.5833 15.4719 12.0735 15.4719ZM12.0825 20C12.6708 20 13.1432 19.5187 13.1432 18.9393C13.1432 18.3599 12.6708 17.8875 12.0825 17.8875C11.5031 17.8875 11.0306 18.3599 11.0306 18.9393C11.0306 19.5187 11.5031 20 12.0825 20Z" fill="#0898A0"/>
</g>
</svg>
