<svg width="9" height="10" viewBox="0 0 9 10" fill="none" xmlns="http://www.w3.org/2000/svg">
<path id="&#244;&#128;&#129;&#157;" d="M4.50232 9.5C6.96235 9.5 9 7.46235 9 4.99768C9 2.53765 6.95771 0.5 4.49768 0.5C2.03765 0.5 0 2.53765 0 4.99768C0 7.46235 2.04229 9.5 4.50232 9.5ZM4.41413 5.93528C4.15884 5.93528 4.0196 5.80995 4.0196 5.56395V5.50825C4.0196 5.07194 4.2656 4.82594 4.59515 4.5985C4.99897 4.32001 5.18927 4.16684 5.18927 3.8605C5.18927 3.53094 4.92934 3.29887 4.52553 3.29887C4.22847 3.29887 4.01031 3.4474 3.86643 3.68876C3.72254 3.8605 3.67148 3.9951 3.40691 3.9951C3.23517 3.9951 3.06808 3.87442 3.06808 3.66555C3.06808 3.58664 3.082 3.51238 3.10521 3.43347C3.23053 3.00181 3.76431 2.63976 4.55802 2.63976C5.35637 2.63976 6.03868 3.0575 6.03868 3.82336C6.03868 4.37107 5.72769 4.631 5.27746 4.9327C4.97112 5.14621 4.80866 5.30402 4.80402 5.55467C4.80402 5.56859 4.80402 5.5918 4.80402 5.60572C4.79474 5.79139 4.65549 5.93528 4.41413 5.93528ZM4.4327 7.27205C4.16813 7.27205 3.92677 7.06782 3.92677 6.78932C3.92677 6.51083 4.16349 6.3066 4.4327 6.3066C4.70191 6.3066 4.93863 6.50619 4.93863 6.78932C4.93863 7.07246 4.69727 7.27205 4.4327 7.27205Z" fill="#71879C"/>
</svg>
