<svg width="123" height="38" viewBox="0 0 123 38" fill="none" xmlns="http://www.w3.org/2000/svg">
<g id="Vector">
<path d="M8.22568 14.9432L7.95597 1.55069H0V36.6297H8.22568V22.8292C8.42795 12.156 12.4734 8.68886 23.3285 8.00903V1.00683C13.6196 1.00683 10.0461 4.74587 8.49537 14.9432H8.22568Z" fill="white"/>
<path d="M27.0489 36.6297H35.2746V1.55069H27.0489V36.6297Z" fill="white"/>
<path d="M56.5788 37.7174C66.4227 37.7174 72.2211 33.6384 72.2211 26.7722C72.2211 21.5375 68.9173 18.5463 62.1076 17.0507L52.938 15.0792C50.0388 14.3994 48.4206 12.9038 48.4206 11.0003C48.4206 8.21298 51.185 6.51342 55.7698 6.51342C60.8265 6.51342 63.7932 8.96078 63.7932 12.9718H71.6817C71.6817 5.08578 65.681 0.462975 55.5001 0.462975C46.1956 0.462975 40.3298 4.67789 40.3298 11.2042C40.3298 16.5068 44.1729 19.838 50.5107 21.1297L59.2758 23.0332C62.8492 23.8489 64.0629 25.0047 64.0629 27.1121C64.0629 29.9674 61.2311 31.6669 56.6463 31.6669C51.0501 31.6669 47.8812 29.3555 47.6115 25.2086H39.5207C39.7904 33.2305 45.8585 37.7174 56.5788 37.7174Z" fill="white"/>
<path d="M109.528 17.9345C109.528 8.28096 102.988 0.462975 92.3349 0.462975C81.6145 0.462975 74.5351 7.53315 74.5351 18.9542C74.5351 31.327 81.7494 37.7174 92.7394 37.7174C100.493 37.7174 108.179 33.0266 109.258 24.3928H101.774C100.898 28.3358 97.5939 31.259 92.7394 31.259C86.8062 31.259 82.6259 27.452 82.4236 20.6538H109.528V17.9345ZM91.9978 6.92131C97.4591 6.92131 101.033 10.3204 101.437 15.963H82.4236C82.8282 9.98052 86.8736 6.92131 91.9978 6.92131Z" fill="white"/>
<path d="M123 5.66734C123 8.64126 120.609 11.0521 117.66 11.0521C114.71 11.0521 112.319 8.64126 112.319 5.66734C112.319 2.69343 114.71 0.282593 117.66 0.282593C120.609 0.282593 123 2.69343 123 5.66734Z" fill="white"/>
</g>
</svg>
