<svg width="81" height="26" viewBox="0 0 81 26" fill="none" xmlns="http://www.w3.org/2000/svg">
<g id="Vector">
<path d="M5.60757 10.4332L5.43092 1.73373H0.220093V24.5201H5.60757V15.5557C5.74004 8.62262 8.38961 6.37048 15.4993 5.92888V1.38045C9.14032 1.38045 6.79987 3.80923 5.7842 10.4332H5.60757Z" fill="#71879C" fill-opacity="0.2"/>
<path d="M17.936 24.5201H23.3235V1.73373H17.936V24.5201Z" fill="#71879C" fill-opacity="0.2"/>
<path d="M37.2768 25.2266C43.7241 25.2266 47.5219 22.577 47.5219 18.1169C47.5219 14.7166 45.358 12.7736 40.8979 11.8021L34.8922 10.5215C32.9934 10.0799 31.9335 9.10837 31.9335 7.8719C31.9335 6.06136 33.7441 4.95737 36.7469 4.95737C40.0589 4.95737 42.0019 6.54712 42.0019 9.15253H47.1686C47.1686 4.03002 43.2384 1.02718 36.5703 1.02718C30.4763 1.02718 26.6344 3.76506 26.6344 8.00438C26.6344 11.4488 29.1515 13.6126 33.3025 14.4517L39.0432 15.6881C41.3837 16.2181 42.1786 16.9688 42.1786 18.3377C42.1786 20.1924 40.3238 21.2964 37.321 21.2964C33.6558 21.2964 31.5803 19.795 31.4036 17.1012H26.1045C26.2811 22.3121 30.2555 25.2266 37.2768 25.2266Z" fill="#71879C" fill-opacity="0.2"/>
<path d="M71.9562 12.3762C71.9562 6.10552 67.6728 1.02718 60.6955 1.02718C53.6742 1.02718 49.0374 5.61977 49.0374 13.0386C49.0374 21.0756 53.7625 25.2266 60.9605 25.2266C66.0389 25.2266 71.073 22.1796 71.7796 16.5713H66.8779C66.3038 19.1326 64.14 21.0314 60.9605 21.0314C57.0745 21.0314 54.3366 18.5585 54.2041 14.1426H71.9562V12.3762ZM60.4748 5.22233C64.0517 5.22233 66.3921 7.43031 66.6571 11.0955H54.2041C54.4691 7.20951 57.1186 5.22233 60.4748 5.22233Z" fill="#71879C" fill-opacity="0.2"/>
<path d="M80.7799 4.40779C80.7799 6.33956 79.2139 7.90557 77.2821 7.90557C75.3503 7.90557 73.7843 6.33956 73.7843 4.40779C73.7843 2.47602 75.3503 0.910004 77.2821 0.910004C79.2139 0.910004 80.7799 2.47602 80.7799 4.40779Z" fill="#71879C" fill-opacity="0.2"/>
</g>
</svg>
