<svg width="24" height="25" viewBox="0 0 24 25" fill="none" xmlns="http://www.w3.org/2000/svg">
<g id="icon 05">
<path id="&#244;&#128;&#141;&#159;" d="M12 21.6625C12.2455 21.6625 12.4816 21.6433 12.7365 21.6145L13.2276 22.5728C13.322 22.774 13.5014 22.8603 13.7375 22.8315C13.9641 22.7932 14.0963 22.6495 14.1246 22.4099L14.2757 21.3462C14.7479 21.2217 15.2106 21.0396 15.6544 20.8384L16.4287 21.5475C16.5892 21.7104 16.7875 21.7295 17.0047 21.6145C17.1936 21.5091 17.2597 21.3271 17.2219 21.0875L17.0047 20.043C17.4013 19.7651 17.7885 19.4489 18.1284 19.0847L19.0916 19.4968C19.3088 19.5926 19.4882 19.5447 19.6582 19.3435C19.8187 19.1806 19.8281 18.9793 19.6959 18.7781L19.1388 17.8678C19.4221 17.4653 19.6582 17.0341 19.8659 16.5741L20.9235 16.6316C21.1501 16.6412 21.3201 16.5262 21.3957 16.3058C21.4712 16.095 21.4051 15.9033 21.2257 15.7596L20.4042 15.0888C20.5269 14.6193 20.6213 14.1306 20.6591 13.6131L21.6506 13.2969C21.8772 13.2202 22 13.0669 22 12.8273C22 12.5974 21.8772 12.444 21.6506 12.3674L20.6591 12.0416C20.6213 11.5337 20.5269 11.045 20.4042 10.5754L21.2257 9.90466C21.4051 9.77051 21.4618 9.58844 21.3957 9.36804C21.3201 9.14764 21.1501 9.03265 20.9235 9.04223L19.8659 9.08056C19.6582 8.63018 19.4221 8.19897 19.1388 7.7965L19.6959 6.87658C19.8281 6.69451 19.8093 6.49327 19.6582 6.33037C19.4882 6.12914 19.3088 6.08123 19.0916 6.17705L18.1284 6.56994C17.7885 6.22496 17.4013 5.90874 17.0047 5.63085L17.2219 4.58635C17.2597 4.34678 17.1936 4.15513 17.0047 4.05931C16.7875 3.93473 16.5987 3.9539 16.4287 4.12638L15.6544 4.82591C15.2106 4.6151 14.7479 4.45219 14.2757 4.31804L14.1246 3.26396C14.0963 3.02439 13.9547 2.88065 13.7375 2.84232C13.5014 2.81358 13.322 2.89982 13.2276 3.09147L12.7365 4.04972C12.4816 4.03056 12.2455 4.01139 12 4.01139C11.7545 4.01139 11.5184 4.03056 11.2635 4.04972L10.763 3.09147C10.678 2.89982 10.4986 2.81358 10.2531 2.84232C10.0359 2.88065 9.90368 3.02439 9.87535 3.26396L9.72427 4.31804C9.25212 4.45219 8.78942 4.6151 8.33617 4.82591L7.56185 4.12638C7.39188 3.96348 7.20302 3.94432 6.99528 4.05931C6.80642 4.15513 6.73088 4.34678 6.77809 4.58635L6.99528 5.63085C6.59868 5.90874 6.21152 6.22496 5.86213 6.56994L4.89896 6.17705C4.69122 6.08123 4.50236 6.12914 4.33239 6.33037C4.1813 6.49327 4.17186 6.69451 4.29462 6.87658L4.86119 7.7965C4.5779 8.19897 4.34183 8.63018 4.13409 9.08056L3.06704 9.04223C2.84042 9.03265 2.67044 9.14764 2.60434 9.36804C2.51936 9.58844 2.57602 9.77051 2.76487 9.90466L3.59585 10.5754C3.47309 11.045 3.37866 11.5337 3.34089 12.0416L2.33994 12.3674C2.11331 12.444 2 12.5974 2 12.8273C2 13.0669 2.11331 13.2202 2.33994 13.2969L3.34089 13.6227C3.37866 14.1306 3.46364 14.6193 3.59585 15.0888L2.76487 15.7596C2.58546 15.8938 2.5288 16.0854 2.60434 16.3058C2.67044 16.5262 2.84042 16.6412 3.06704 16.6316L4.13409 16.5741C4.34183 17.0341 4.5779 17.4653 4.85175 17.8678L4.29462 18.7781C4.16242 18.9793 4.1813 19.1806 4.33239 19.3435C4.50236 19.5447 4.69122 19.5926 4.89896 19.4968L5.86213 19.0847C6.21152 19.4489 6.59868 19.7651 6.99528 20.043L6.77809 21.0875C6.73088 21.3271 6.80642 21.5091 6.99528 21.6145C7.21246 21.7295 7.40132 21.7104 7.56185 21.5475L8.33617 20.8384C8.78942 21.0396 9.25212 21.2217 9.72427 21.3462L9.87535 22.4099C9.90368 22.6495 10.0359 22.7932 10.2625 22.8315C10.4986 22.8603 10.678 22.774 10.763 22.5728L11.2635 21.6145C11.509 21.6433 11.7545 21.6625 12 21.6625ZM14.1719 12.3195C13.8225 11.2271 13.0009 10.5754 11.9906 10.5754C11.8111 10.5754 11.6223 10.6042 11.3484 10.6808L8.64778 5.99498C9.64873 5.48711 10.7819 5.19963 12 5.19963C16.0132 5.19963 19.1671 8.31396 19.4221 12.3195H14.1719ZM4.56846 12.8369C4.56846 10.2113 5.80548 7.92107 7.73182 6.54119L10.4514 11.2462C9.97923 11.7253 9.73371 12.2811 9.73371 12.8753C9.73371 13.4694 9.96978 14.006 10.4703 14.5043L7.70349 19.1039C5.78659 17.724 4.56846 15.4434 4.56846 12.8369ZM10.8385 12.8657C10.8385 12.2141 11.3862 11.7062 12 11.7062C12.6421 11.7062 13.1709 12.2141 13.1709 12.8657C13.1709 13.5173 12.6421 14.0443 12 14.0443C11.3862 14.0443 10.8385 13.5173 10.8385 12.8657ZM12 20.4742C10.7724 20.4742 9.6204 20.1867 8.61001 19.6597L11.3673 15.0792C11.6223 15.1463 11.8111 15.1655 11.9906 15.1655C13.0104 15.1655 13.8414 14.4947 14.1813 13.3735H19.4127C19.1577 17.3695 16.0038 20.4742 12 20.4742Z" fill="#0898A0"/>
</g>
</svg>
