<svg width="23" height="18" viewBox="0 0 23 18" fill="none" xmlns="http://www.w3.org/2000/svg">
<g id="Group 1543">
<path id="Shape" d="M0.5 2.675C0.5 1.61185 1.36185 0.749997 2.425 0.749997H17.275C18.3382 0.749997 19.2 1.61185 19.2 2.675V12.025C19.2 13.0882 18.3382 13.95 17.275 13.95H2.425C1.36185 13.95 0.5 13.0882 0.5 12.025V2.675ZM3.8 2.125V3.225C3.8 3.68063 3.43064 4.05 2.975 4.05H1.875V5.7H2.975C4.34191 5.7 5.45 4.5919 5.45 3.225V2.125H3.8ZM9.85 10.1C11.2169 10.1 12.325 8.9919 12.325 7.625C12.325 6.25809 11.2169 5.15 9.85 5.15C8.4831 5.15 7.375 6.25809 7.375 7.625C7.375 8.9919 8.4831 10.1 9.85 10.1ZM1.875 10.65H2.975C3.43064 10.65 3.8 11.0194 3.8 11.475V12.575H5.45V11.475C5.45 10.1081 4.34191 9 2.975 9H1.875V10.65ZM15.9 11.475C15.9 11.0194 16.2694 10.65 16.725 10.65H17.825V9H16.725C15.3581 9 14.25 10.1081 14.25 11.475V12.575H15.9V11.475ZM15.9 3.225V2.125H14.25V3.225C14.25 4.5919 15.3581 5.7 16.725 5.7H17.825V4.05H16.725C16.2694 4.05 15.9 3.68063 15.9 3.225ZM3.14148 15.6C3.71207 16.5864 4.77854 17.25 6 17.25H17.275C20.1607 17.25 22.5 14.9107 22.5 12.025V6.25C22.5 5.02853 21.8364 3.96206 20.85 3.39148V12.025C20.85 13.9994 19.2494 15.6 17.275 15.6H3.14148Z" fill="#94A1AD"/>
<rect id="Rectangle 784" x="1.7373" y="1.67822" width="4.02188" height="4.64063" fill="#94A1AD"/>
<rect id="Rectangle 785" x="14.1123" y="1.67822" width="4.02188" height="4.64063" fill="#94A1AD"/>
<rect id="Rectangle 786" x="14.1123" y="8.17529" width="4.02188" height="4.64063" fill="#94A1AD"/>
<rect id="Rectangle 787" x="1.7373" y="8.48437" width="4.02188" height="4.64063" fill="#94A1AD"/>
</g>
</svg>
